#!OML:ASF H:\MichaelJackson\Top Level 1\Subject 1\Session 1\male.ASF
:FULLY-SPECIFIED
:DEGREES
1131
root 4.515 16.9801 10.133 8.81102 21.7516 1.49159
lowerback -8.56358 -4.98545 -0.123026
upperback -4.15119 -6.56219 -2.09109
thorax 0.240007 -3.29348 -2.63809
lowerneck -4.77836 -6.44961 -0.525742
upperneck 3.13613 -8.67909 2.36497
head 1.92633 -4.27737 0.553138
rclavicle 3.57812e-014 -3.18055e-015
rhumerus -57.2413 43.1713 -71.9092
rradius 123.018
rwrist -10.1252
rhand 17.1261 -8.54052
rfingers 7.12502
rthumb 41.849 686.819
lclavicle 3.57812e-014 -3.18055e-015
lhumerus -55.1288 -28.2891 113.336
lradius 50.8513
lwrist 11.1376
lhand 23.5471 21.8831
lfingers 7.12502
lthumb 47.824 44.1776
rfemur -12.7861 3.1099 8.11852
rtibia 27.9053
rfoot -19.3557 14.0554
rtoes 18.922
lfemur -10.5119 -9.24812 -3.98969
ltibia 20.3541
lfoot -12.5376 -26.675
ltoes 19.6953
1132
root 4.50344 16.9704 10.133 8.67642 21.7693 1.02856
lowerback -8.65313 -5.08852 0.41763
upperback -4.14541 -6.74217 -1.94361
thorax 0.242449 -3.39051 -2.80573
lowerneck -4.6433 -6.32658 -0.360425
upperneck 2.90578 -8.51795 2.342
head 1.81552 -4.19902 0.53374
rclavicle -7.4743e-014 -4.77083e-015
rhumerus -54.6285 44.7725 -66.5237
rradius 123.138
rwrist -11.8966
rhand 20.1571 -8.93175
rfingers 7.12502
rthumb 44.6814 687.444
lclavicle -7.4743e-014 -4.77083e-015
lhumerus -55.0746 -28.338 113.492
lradius 50.49
lwrist 10.903
lhand 23.8415 21.8034
lfingers 7.12502
lthumb 48.0954 43.9716
rfemur -12.6657 3.35531 8.74995
rtibia 27.6224
rfoot -19.7775 13.4217
rtoes 18.7044
lfemur -10.166 -9.67705 -3.16614
ltibia 19.4797
lfoot -12.323 -27.508
ltoes 20.3241
1133
root 4.49557 16.9612 10.1287 8.47882 21.7195 0.584263
lowerback -8.66976 -5.18898 0.969102
upperback -4.10773 -6.92128 -1.78906
thorax 0.235078 -3.48708 -2.9661
lowerneck -4.5411 -6.17707 -0.186047
upperneck 2.69761 -8.31962 2.25726
head 1.71458 -4.10305 0.493131
rclavicle 8.94531e-016 1.66979e-014
rhumerus -51.2669 46.1485 -60.4491
rradius 122.828
rwrist -13.6887
rhand 23.0569 -9.57536
rfingers 7.12502
rthumb 47.3714 687.924
lclavicle 8.94531e-016 1.66979e-014
lhumerus -54.9949 -28.1583 113.548
lradius 50.0605
lwrist 10.5532
lhand 23.9495 21.3279
lfingers 7.12502
lthumb 48.195 43.4492
rfemur -12.6012 3.69832 9.32125
rtibia 27.5188
rfoot -20.0846 12.8381
rtoes 18.5124
lfemur -9.7674 -9.88736 -2.53432
ltibia 18.7681
lfoot -12.3211 -27.8641
ltoes 20.5862
1134
root 4.4916 16.9521 10.1205 8.24661 21.5971 0.191533
lowerback -8.63058 -5.29202 1.50605
upperback -4.04388 -7.10312 -1.63765
thorax 0.222874 -3.58456 -3.11711
lowerneck -4.49501 -6.00338 9.31439e-005
upperneck 2.53548 -8.08853 2.10886
head 1.63543 -3.99109 0.429004
rclavicle -1.26676e-013 -2.18663e-014
rhumerus -47.2043 47.2274 -53.7859
rradius 122.046
rwrist -15.331
rhand 25.7675 -10.3188
rfingers 7.12502
rthumb 49.8649 688.388
lclavicle -1.26676e-013 -2.18663e-014
lhumerus -54.9066 -27.7743 113.506
lradius 49.6349
lwrist 10.2578
lhand 23.7816 20.6401
lfingers 7.12502
lthumb 48.0403 42.8341
rfemur -12.5864 4.13842 9.78191
rtibia 27.5587
rfoot -20.2898 12.4004
rtoes 18.4623
lfemur -9.32471 -9.96409 -2.1126
ltibia 18.2075
lfoot -12.5659 -27.7403
ltoes 20.5139
1135
root 4.49144 16.9426 10.109 8.01316 21.4099 -0.114998
lowerback -8.56509 -5.39843 1.98769
upperback -3.95858 -7.28475 -1.49635
thorax 0.221637 -3.68058 -3.24605
lowerneck -4.49793 -5.81706 0.190774
upperneck 2.41169 -7.84044 1.9098
head 1.57574 -3.87089 0.346578
rclavicle -7.12643e-014 -1.82882e-014
rhumerus -42.5864 47.9368 -46.6927
rradius 120.788
rwrist -16.737
rhand 28.1461 -11.0886
rfingers 7.12502
rthumb 52.0328 688.825
lclavicle -7.12643e-014 -1.82882e-014
lhumerus -54.8235 -27.2598 113.405
lradius 49.2827
lwrist 10.1862
lhand 23.2756 19.9358
lfingers 7.12502
lthumb 47.5734 42.3452
rfemur -12.619 4.62119 10.095
rtibia 27.7129
rfoot -20.4247 12.1618
rtoes 18.6219
lfemur -8.84905 -9.99204 -1.91209
ltibia 17.7673
lfoot -13.0786 -27.1321
ltoes 20.0719
1136
root 4.49493 16.9324 10.0952 7.80688 21.1701 -0.319965
lowerback -8.50036 -5.5031 2.39596
upperback -3.86007 -7.45799 -1.36873
thorax 0.240613 -3.77061 -3.34868
lowerneck -4.54082 -5.63094 0.375045
upperneck 2.31436 -7.59229 1.67464
head 1.53158 -3.75091 0.252243
rclavicle -7.65818e-014 -7.95139e-015
rhumerus -37.6189 48.2068 -39.3586
rradius 119.072
rwrist -17.8914
rhand 30.1684 -11.8181
rfingers 7.12502
rthumb 53.8583 689.249
lclavicle -7.65818e-014 -7.95139e-015
lhumerus -54.7532 -26.7002 113.28
lradius 49.0736
lwrist 10.4564
lhand 22.4989 19.4711
lfingers 7.12502
lthumb 46.8554 42.2008
rfemur -12.7014 5.06944 10.2545
rtibia 27.9551
rfoot -20.5236 12.1363
rtoes 18.9382
lfemur -8.35461 -10.0257 -1.91892
ltibia 17.4065
lfoot -13.8172 -26.0836
ltoes 19.2564
1137
root 4.5016 16.9217 10.0804 7.64594 20.8955 -0.426276
lowerback -8.45986 -5.59807 2.7271
upperback -3.758 -7.6124 -1.25526
thorax 0.284636 -3.84933 -3.42504
lowerneck -4.60698 -5.45712 0.548951
upperneck 2.22851 -7.36013 1.41622
head 1.4961 -3.63923 0.151019
rclavicle 6.71892e-014 2.8625e-014
rhumerus -32.5551 47.9938 -32.0125
rradius 116.92
rwrist -18.8053
rhand 31.7815 -12.4661
rfingers 7.12502
rthumb 55.3011 689.615
lclavicle 6.71892e-014 2.8625e-014
lhumerus -54.6974 -26.1725 113.161
lradius 49.0315
lwrist 11.0705
lhand 21.574 19.3323
lfingers 7.12502
lthumb 45.9984 42.4275
rfemur -12.8334 5.43015 10.2796
rtibia 28.2599
rfoot -20.619 12.2897
rtoes 19.3167
lfemur -7.8508 -10.0989 -2.0975
ltibia 17.0802
lfoot -14.7171 -24.6666
ltoes 18.0707
1138
root 4.51097 16.9105 10.0655 7.53592 20.6053 -0.455145
lowerback -8.46067 -5.67647 2.98945
upperback -3.65848 -7.74022 -1.14636
thorax 0.358322 -3.91282 -3.47134
lowerneck -4.67617 -5.30165 0.704124
upperneck 2.13239 -7.1513 1.1425
head 1.45939 -3.53976 0.0475722
rclavicle -4.09745e-014 2.78299e-015
rhumerus -27.6038 47.2724 -24.8521
rradius 114.338
rwrist -19.5353
rhand 33.0839 -13.0156
rfingers 7.12502
rthumb 56.4561 689.954
lclavicle -4.09745e-014 2.78299e-015
lhumerus -54.6334 -25.7329 113.069
lradius 49.1385
lwrist 11.9629
lhand 20.672 19.5288
lfingers 7.12502
lthumb 45.1606 42.9648
rfemur -13.0064 5.67557 10.2086
rtibia 28.5978
rfoot -20.7413 12.5513
rtoes 19.6057
lfemur -7.34857 -10.241 -2.39201
ltibia 16.7477
lfoot -15.6755 -22.9826
ltoes 16.6352
1139
root 4.52242 16.8992 10.0515 7.47049 20.3175 -0.453481
lowerback -8.5097 -5.72911 3.22642
upperback -3.57276 -7.83306 -1.03598
thorax 0.450042 -3.9578 -3.5047
lowerneck -4.72429 -5.16714 0.844963
upperneck 2.01704 -6.96956 0.864141
head 1.41446 -3.45426 -0.0547137
rclavicle -1.46753e-013 -1.82882e-014
rhumerus -22.9668 46.036 -18.0942
rradius 111.311
rwrist -20.1344
rhand 34.1832 -13.4471
rfingers 7.12502
rthumb 57.4234 690.325
lclavicle -1.46753e-013 -1.82882e-014
lhumerus -54.5686 -25.4184 113.013
lradius 49.3591
lwrist 13.0019
lhand 19.9375 19.9784
lfingers 7.12502
lthumb 44.4769 43.6811
rfemur -13.2073 5.80405 10.1039
rtibia 28.9364
rfoot -20.9094 12.855
rtoes 19.6798
lfemur -6.85962 -10.4652 -2.72166
ltibia 16.3818
lfoot -16.5888 -21.1582
ltoes 15.1135
1140
root 4.53533 16.8879 10.0392 7.43637 20.0465 -0.46274
lowerback -8.61031 -5.75412 3.46299
upperback -3.50234 -7.89104 -0.909515
thorax 0.559096 -3.9845 -3.52419
lowerneck -4.74505 -5.0531 0.97184
upperneck 1.88588 -6.81432 0.580119
head 1.36108 -3.38236 -0.156058
rclavicle 1.89839e-014 8.34896e-015
rhumerus -18.7422 44.2753 -11.8868
rradius 107.793
rwrist -20.6417
rhand 35.2697 -13.7244
rfingers 7.12502
rthumb 58.3719 690.893
lclavicle 1.89839e-014 8.34896e-015
lhumerus -54.4909 -25.2354 113.001
lradius 49.6292
lwrist 14.0389
lhand 19.4605 20.5327
lfingers 7.12502
lthumb 44.0321 44.4036
rfemur -13.4151 5.83381 10.0171
rtibia 29.2441
rfoot -21.1275 13.1553
rtoes 19.5246
lfemur -6.39307 -10.7749 -3.01743
ltibia 15.9761
lfoot -17.3995 -19.3183
ltoes 13.6075
1141
root 4.54907 16.8768 10.0286 7.41774 19.7975 -0.522236
lowerback -8.74878 -5.75097 3.73457
upperback -3.45345 -7.91635 -0.763034
thorax 0.667173 -3.99489 -3.54293
lowerneck -4.73036 -4.95067 1.09411
upperneck 1.74445 -6.67468 0.302116
head 1.29963 -3.31819 -0.253994
rclavicle 1.19147e-014 3.77691e-015
rhumerus -14.9874 41.9981 -6.37292
rradius 103.724
rwrist -21.0751
rhand 36.3835 -13.8702
rfingers 7.12502
rthumb 59.3358 691.671
lclavicle 1.19147e-014 3.77691e-015
lhumerus -54.4093 -25.1719 113.032
lradius 49.8771
lwrist 14.9525
lhand 19.264 21.0185
lfingers 7.12502
lthumb 43.8489 44.9575
rfemur -13.6132 5.79784 9.99218
rtibia 29.4972
rfoot -21.3884 13.4211
rtoes 19.163
lfemur -5.95696 -11.1576 -3.21938
ltibia 15.5383
lfoot -18.0862 -17.5671
ltoes 12.168
